<svg xmlns:xlink="http://www.w3.org/1999/xlink" version="1.1" xmlns="http://www.w3.org/2000/svg" width="64px"
     height="64px" viewBox="0,0,256,256">
    <g fill="none" fill-rule="nonzero" stroke="none" stroke-width="1" stroke-linecap="butt" stroke-linejoin="miter"
       stroke-miterlimit="10" stroke-dasharray="" stroke-dashoffset="0" font-family="none"
       font-size="none" style="mix-blend-mode: normal">
        <g transform="scale(4,4)">
            <path d="M12,37v-32c0,-1.10457 0.89543,-2 2,-2h26l12,12v22" fill="#9CA3AF"></path>
            <path d="M52,57v2c0,1.10457 -0.89543,2 -2,2h-36c-1.10457,0 -2,-0.89543 -2,-2v-2" fill="#e3e3e3"></path>
            <path d="M40,3v12h12" fill="#cbd6e6"></path>
            <rect x="9" y="37" width="46" height="20" rx="2" ry="0" fill="#787d80"></rect>
            <path d="M46,26h-28c-0.55228,0 -1,-0.44772 -1,-1c0,-0.55228 0.44772,-1 1,-1h28c0.55228,0 1,0.44772 1,1c0,0.55228 -0.44772,1 -1,1z"
                  fill="#cbd6e6"></path>
            <path d="M46,32h-28c-0.55228,0 -1,-0.44772 -1,-1c0,-0.55228 0.44772,-1 1,-1h28c0.55228,0 1,0.44772 1,1c0,0.55228 -0.44772,1 -1,1z"
                  fill="#cbd6e6"></path>
            <path d="M19.67,42.38c-0.00747,-0.23992 0.11994,-0.46385 0.33,-0.58c0.23221,-0.12909 0.49436,-0.19463 0.76,-0.19h3.3c0.39367,-0.00127 0.78621,0.04235 1.17,0.13c0.36061,0.08002 0.70096,0.23318 1,0.45c0.31403,0.22247 0.56544,0.52211 0.73,0.87c0.39389,0.96804 0.36121,2.05731 -0.09,3c-0.22083,0.40769 -0.57335,0.72848 -1,0.91c0.23304,0.09309 0.45727,0.20688 0.67,0.34c0.20635,0.12797 0.38627,0.2943 0.53,0.49c0.14928,0.21998 0.26081,0.46332 0.33,0.72c0.0835,0.32666 0.12385,0.66286 0.12,1v0.34c0.01532,0.54741 -0.0694,1.09302 -0.25,1.61c-0.26518,0.8012 -0.90274,1.42385 -1.71,1.67c-0.41221,0.122 -0.84013,0.18265 -1.27,0.18h-3.52c-0.2869,0.01824 -0.57175,-0.05912 -0.81,-0.22c-0.17535,-0.12058 -0.28299,-0.3173 -0.29,-0.53zM22.17,46h1.69c0.27461,0.02002 0.53857,-0.11005 0.69,-0.34c0.14783,-0.22928 0.22439,-0.49723 0.22,-0.77c0.00263,-0.27253 -0.07379,-0.53999 -0.22,-0.77c-0.14743,-0.23545 -0.41293,-0.37012 -0.69,-0.35h-1.69zM23.78,51.15c0.35113,0.01766 0.69426,-0.10875 0.95,-0.35c0.24781,-0.32196 0.36559,-0.72528 0.33,-1.13v-0.26c0.0418,-0.41149 -0.07637,-0.82329 -0.33,-1.15c-0.26072,-0.23105 -0.60219,-0.34967 -0.95,-0.33h-1.61v3.22z"
                  fill="#e3e3e3"></path>
            <path d="M29.68,53.37c-0.18268,-0.00351 -0.36415,-0.03039 -0.54,-0.08c-0.18286,-0.04837 -0.35794,-0.12245 -0.52,-0.22c-0.15055,-0.07882 -0.2833,-0.18774 -0.39,-0.32c-0.10422,-0.11091 -0.16154,-0.25781 -0.16,-0.41c-0.00835,-0.05971 -0.00835,-0.12029 0,-0.18l3,-9.81c0.09339,-0.29056 0.31434,-0.52256 0.6,-0.63c0.66506,-0.28003 1.41494,-0.28003 2.08,0c0.28566,0.10744 0.50661,0.33944 0.6,0.63l3,9.81c0.00515,0.05989 0.00515,0.12011 0,0.18c0.00047,0.15018 -0.05273,0.29558 -0.15,0.41c-0.1067,0.13226 -0.23945,0.24118 -0.39,0.32c-0.16517,0.09843 -0.34368,0.17252 -0.53,0.22c-0.1755,0.05122 -0.35719,0.07814 -0.54,0.08c-0.17859,0.00547 -0.35618,-0.02868 -0.52,-0.1c-0.14677,-0.07665 -0.25534,-0.21055 -0.3,-0.37l-0.54,-2h-3.4l-0.55,2c-0.03771,0.1599 -0.14374,0.29518 -0.29,0.37c-0.14539,0.06288 -0.30163,0.09685 -0.46,0.1zM33.92,49l-1.18,-4.31l-1.17,4.31z"
                  fill="#e3e3e3"></path>
            <path d="M44.31,41.61c0.2463,-0.01127 0.47517,0.12684 0.58,0.35c0.11923,0.23554 0.18092,0.496 0.18,0.76c0.0063,0.27978 -0.06278,0.5561 -0.2,0.8c-0.10081,0.21608 -0.32178,0.35024 -0.56,0.34h-2.22v8.74c0.00174,0.25517 -0.15303,0.48534 -0.39,0.58c-0.54872,0.25388 -1.18128,0.25388 -1.73,0c-0.23697,-0.09466 -0.39174,-0.32483 -0.39,-0.58v-8.74h-2.22c-0.23977,0.00647 -0.46176,-0.12595 -0.57,-0.34c-0.24616,-0.49087 -0.24616,-1.06913 0,-1.56c0.10483,-0.22316 0.3337,-0.36127 0.58,-0.35z"
                  fill="#e3e3e3"></path>
        </g>
    </g>
</svg>