<svg xmlns:xlink="http://www.w3.org/1999/xlink" version="1.1" xmlns="http://www.w3.org/2000/svg" width="50px"
     height="50px" viewBox="0,0,256,256">
    <g fill="#9CA3AF" fill-rule="nonzero" stroke="none" stroke-width="1" stroke-linecap="butt" stroke-linejoin="miter"
       stroke-miterlimit="10" stroke-dasharray="" stroke-dashoffset="0" font-family="none"
       font-size="none" style="mix-blend-mode: normal">
        <g transform="scale(5.12,5.12)">
            <path d="M7,2v46h36v-32.58594l-13.58984,-13.41406zM9,4h19v13h13v29h-32zM30,5.39063l9.73438,9.60938h-9.73437zM21.97656,23.55859l1.81641,4.93359l-1.89062,5.17578h1.94922l0.53906,-1.82812c0.15234,-0.57031 0.31641,-1.1875 0.48047,-1.83203h0.03125c0.17969,0.64453 0.34375,1.21484 0.53906,1.80078l0.64844,1.85938h2.01953l-1.99219,-5.08984l1.89063,-5.01953h-1.96484l-0.51172,1.84375c-0.13672,0.55469 -0.25391,1.03516 -0.42187,1.64844h-0.02734c-0.16406,-0.57031 -0.30078,-1.09375 -0.46484,-1.61719l-0.58594,-1.875zM16.90625,23.55859v10.10938h4.57813v-1.71094h-2.60937v-2.73047h2.30859v-1.63281h-2.30859v-2.32812h2.42578v-1.70703zM28.92188,23.55859v10.10938h4.57813v-1.71094h-2.60937v-2.73047h2.30859v-1.63281h-2.30859v-2.32812h2.42578v-1.70703z"></path>
        </g>
    </g>
</svg>