<svg xmlns:xlink="http://www.w3.org/1999/xlink" version="1.1" xmlns="http://www.w3.org/2000/svg" width="50px"
     height="50px" viewBox="0,0,256,256">
    <g fill="#9CA3AF" fill-rule="nonzero" stroke="none" stroke-width="1" stroke-linecap="butt" stroke-linejoin="miter"
       stroke-miterlimit="10" stroke-dasharray="" stroke-dashoffset="0" font-family="none"
       font-size="none" style="mix-blend-mode: normal">
        <g transform="scale(5.12,5.12)">
            <path d="M7,2v46h36v-32.58984l-13.81641,-13.41016zM9,4h19v13h13v29h-32zM30,5.57813l9.70703,9.42188h-9.70703zM23.76953,19.875c-0.75,0 -1.52734,0.42578 -1.86719,1.05859c-0.34375,0.62891 -0.36719,1.30469 -0.28125,2.00781c0.13281,1.10938 0.63672,2.36328 1.28906,3.64844c-0.32422,1.09375 -0.48047,2.04688 -0.96875,3.21484c-0.62109,1.48828 -1.38281,2.66797 -2.11328,3.90625c-0.95312,0.44531 -2.15625,0.84375 -2.85937,1.30469c-0.78906,0.51953 -1.41406,0.98438 -1.78125,1.72266c-0.17969,0.36719 -0.27344,0.89063 -0.09375,1.36328c0.17969,0.47266 0.55469,0.78125 0.94141,0.98047c0.82031,0.43359 1.76563,0.16406 2.44922,-0.29687c0.68359,-0.46094 1.29297,-1.13672 1.90625,-1.96094c0.30859,-0.41797 0.55469,-1.09375 0.85938,-1.58203c0.98047,-0.43359 1.67578,-0.88281 2.78906,-1.26562c1.50391,-0.51953 2.84375,-0.73828 4.25,-1.04297c1.17578,0.79297 2.42578,1.41016 3.79297,1.41016c0.77344,0 1.37109,-0.03516 1.95313,-0.35156c0.58594,-0.31641 0.9375,-1.07812 0.9375,-1.66016c0,-0.47266 -0.20703,-0.97656 -0.53516,-1.30078c-0.33203,-0.32422 -0.72266,-0.49609 -1.125,-0.60547c-0.79687,-0.21484 -1.70312,-0.19922 -2.74609,-0.09375c-0.55078,0.05859 -1.28906,0.35156 -1.90234,0.46484c-0.08203,-0.0625 -0.16016,-0.08984 -0.24219,-0.16016c-1.24609,-1.07422 -2.41406,-2.55859 -3.28125,-4.03516c-0.05078,-0.08984 -0.04297,-0.15234 -0.09375,-0.24219c0.21094,-0.78906 0.625,-1.70703 0.71875,-2.39844c0.12891,-0.95703 0.15625,-1.79297 -0.07422,-2.55859c-0.11719,-0.38281 -0.3125,-0.76953 -0.65234,-1.06641c-0.33984,-0.29687 -0.82031,-0.46094 -1.26953,-0.46094zM23.6875,21.86719c0.01172,0 0.03125,0.00781 0.04688,0.01172c0.00391,0.00781 0.01172,0.00391 0.04297,0.10156c0.05469,0.18359 0.02344,0.70313 0.00391,1.16406c-0.02344,-0.11719 -0.16016,-0.33594 -0.17187,-0.44141c-0.05859,-0.46484 0.01563,-0.76172 0.04688,-0.8125c0.00781,-0.01953 0.01953,-0.02344 0.03125,-0.02344zM24.29297,28.88281c0.61719,0.88672 1.30078,1.71484 2.06641,2.47656c-1.02344,0.27344 -1.94141,0.37109 -2.97266,0.72656c-0.21875,0.07422 -0.34375,0.17969 -0.55859,0.25781c0.30469,-0.63672 0.68359,-1.10937 0.95703,-1.76562c0.25,-0.59766 0.29297,-1.10156 0.50781,-1.69531z"></path>
        </g>
    </g>
</svg>