<svg xmlns:xlink="http://www.w3.org/1999/xlink" version="1.1" xmlns="http://www.w3.org/2000/svg" width="50px"
     height="50px" viewBox="0,0,256,256">
    <g fill="#9CA3AF" fill-rule="nonzero" stroke="none" stroke-width="1" stroke-linecap="butt" stroke-linejoin="miter"
       stroke-miterlimit="10" stroke-dasharray="" stroke-dashoffset="0" font-family="none"
       font-size="none" style="mix-blend-mode: normal">
        <g transform="scale(5.12,5.12)">
            <path d="M28.875,0c-0.01953,0.00781 -0.04297,0.01953 -0.0625,0.03125l-28,5.3125c-0.47656,0.08984 -0.82031,0.51172 -0.8125,1v37.3125c-0.00781,0.48828 0.33594,0.91016 0.8125,1l28,5.3125c0.28906,0.05469 0.58984,-0.01953 0.82031,-0.20703c0.22656,-0.1875 0.36328,-0.46484 0.36719,-0.76172v-5h17c1.09375,0 2,-0.90625 2,-2v-34c0,-1.09375 -0.90625,-2 -2,-2h-17v-5c0.00391,-0.28906 -0.12109,-0.5625 -0.33594,-0.75391c-0.21484,-0.19141 -0.50391,-0.28125 -0.78906,-0.24609zM28,2.1875v4.5c-0.05859,0.19531 -0.05859,0.39844 0,0.59375v35.53125c-0.02734,0.13281 -0.02734,0.27344 0,0.40625v4.59375l-26,-4.96875v-35.6875zM30,8h17v34h-17v-5h14v-2h-14v-6h14v-2h-14v-5h14v-2h-14v-5h14v-2h-14zM4.625,15.65625l3.8125,18.6875h3.75l2.46875,-11.96875c0.11328,-0.55078 0.21875,-1.27344 0.28125,-2.125h0.03125c0.02734,0.77344 0.08984,1.5 0.21875,2.125l2.40625,11.96875h3.625l3.84375,-18.6875h-3.3125l-2,12.46875c-0.11719,0.70313 -0.19141,1.40625 -0.21875,2.09375h-0.03125c-0.06641,-0.87891 -0.13281,-1.53906 -0.21875,-2l-2.375,-12.5625h-3.5l-2.625,12.40625c-0.16797,0.79297 -0.28516,1.51953 -0.3125,2.1875h-0.0625c-0.03906,-0.89453 -0.09766,-1.625 -0.1875,-2.15625l-2.03125,-12.4375z"></path>
        </g>
    </g>
</svg>