<svg xmlns:xlink="http://www.w3.org/1999/xlink" version="1.1" xmlns="http://www.w3.org/2000/svg" width="48" height="48"
     viewBox="0,0,256,256">
    <g fill="none" fill-rule="nonzero" stroke="none" stroke-width="1" stroke-linecap="butt" stroke-linejoin="miter"
       stroke-miterlimit="10" stroke-dasharray="" stroke-dashoffset="0" font-family="none"
       font-size="none" style="mix-blend-mode: normal">
        <g transform="scale(5.33333,5.33333)">
            <path d="M21,31c0,1.104 0.896,2 2,2h17c1.104,0 2,-0.896 2,-2v-15c0,-1.104 -0.896,-2 -2,-2h-17c-1.104,0 -2,0.896 -2,2z"
                  fill="#03a9f4"></path>
            <path d="M42,16.975v-0.975c0,-0.428 -0.137,-0.823 -0.367,-1.148l-11.264,6.932l-7.542,-4.656l-0.702,1.872l8.459,5z"
                  fill="#b3e5fc"></path>
            <path d="M27,41.46l-21,-4v-28l21,-4z" fill="#0277bd"></path>
            <path d="M21.216,18.311c-1.098,-1.275 -2.546,-1.913 -4.328,-1.913c-1.892,0 -3.408,0.669 -4.554,2.003c-1.144,1.337 -1.719,3.088 -1.719,5.246c0,2.045 0.564,3.714 1.69,4.986c1.126,1.273 2.592,1.91 4.378,1.91c1.84,0 3.331,-0.652 4.474,-1.975c1.143,-1.313 1.712,-3.043 1.712,-5.199c0,-2.088 -0.551,-3.774 -1.653,-5.058zM19.049,26.735c-0.568,0.769 -1.339,1.152 -2.313,1.152c-0.939,0 -1.699,-0.394 -2.285,-1.187c-0.581,-0.785 -0.87,-1.861 -0.87,-3.211c0,-1.336 0.289,-2.414 0.87,-3.225c0.586,-0.81 1.368,-1.211 2.355,-1.211c0.962,0 1.718,0.393 2.267,1.178c0.555,0.795 0.833,1.895 0.833,3.31c0.001,1.365 -0.288,2.427 -0.857,3.194z"
                  fill="#ffffff"></path>
        </g>
    </g>
</svg>