<svg version="1.1" xmlns="http://www.w3.org/2000/svg" xmlns:xlink="http://www.w3.org/1999/xlink" width="48px"
     height="48px" viewBox="0,0,256,256">
    <g transform="">
        <g fill="#ffffff" fill-rule="nonzero" stroke="none" stroke-width="1" stroke-linecap="butt"
           stroke-linejoin="miter" stroke-miterlimit="10" stroke-dasharray="" stroke-dashoffset="0" font-family="none"
           font-size="none" style="mix-blend-mode: normal">
            <g transform="scale(5.33333,5.33333)">
                <path d="M26.88672,3.02344c-0.4493,0.02584 -0.89586,0.13469 -1.3125,0.36133c-0.83328,0.45327 -1.33821,1.25613 -1.64062,2.09961c-0.00065,0.00065 -0.0013,0.0013 -0.00195,0.00195c-0.07479,0.21023 -0.03591,0.11329 -0.05078,0.16406c-0.01487,0.05077 -0.03453,0.11776 -0.05859,0.20117c-0.04813,0.16683 -0.11322,0.39665 -0.19141,0.66992c-0.15636,0.54654 -0.36093,1.26593 -0.56445,1.98047c-0.40704,1.42907 -0.81055,2.84375 -0.81055,2.84375c0,0.0013 0,0.0026 0,0.00391c-0.11439,0.40581 -0.20967,0.62103 -0.25,0.68359c-0.00065,0.0013 -0.0013,0.0026 -0.00195,0.00391c-1.47587,2.30114 -3.06564,4.6185 -4.60937,6.96289h-6.89453c-2.4675,0 -4.5,2.0325 -4.5,4.5v16c0,2.4675 2.0325,4.5 4.5,4.5h4c1.25733,0 2.39281,-0.53479 3.21289,-1.37891c2.30794,0.49979 4.88392,1.05354 6.98242,1.49609c1.09974,0.23192 2.06627,0.43282 2.79492,0.58008c0.72773,0.14707 0.99876,0.22566 1.47852,0.27148c0.30813,0.02974 0.61396,0.04492 0.91602,0.04492c4.28178,0 8.06651,-2.91231 9.16211,-7.14258c0.83771,-3.23786 2.55313,-9.94949 2.56055,-9.97852c0.13957,-0.51409 0.33429,-1.20528 0.37891,-2.0332c0,-0.00065 0,-0.0013 0,-0.00195c0.09575,-1.7887 -0.5252,-3.52917 -1.74414,-4.81836c0,-0.00065 0,-0.0013 0,-0.00195c-1.23886,-1.30889 -2.97568,-2.03331 -4.80273,-2.03711c-0.0013,0 -0.0026,0 -0.00391,0h-3.96875c0.35163,-1.2575 0.69857,-2.47277 0.95117,-3.45898c0,-0.00065 0,-0.0013 0,-0.00195c0.60393,-2.36984 0.74504,-4.48628 0.37891,-6.51758c0,-0.00065 0,-0.0013 0,-0.00195c-0.18391,-1.01308 -0.53082,-2.49123 -1.58008,-3.85156c-0.76257,-0.98808 -1.81009,-1.70749 -2.99805,-2.00586c-0.0013,0 -0.0026,0 -0.00391,0c-0.42714,-0.10645 -0.87882,-0.16452 -1.32812,-0.13867zM27.08398,6.00977c0.06924,-0.00083 0.19369,0.01033 0.4043,0.0625c0.53204,0.13363 0.94609,0.39982 1.35352,0.92773c0.59674,0.77366 0.84981,1.70581 1.00391,2.55469c0.27946,1.55214 0.19387,3.17281 -0.33398,5.24414c-0.36059,1.40756 -1.45508,5.29492 -1.45508,5.29492c-0.1271,0.45197 -0.03527,0.93737 0.24815,1.31167c0.28341,0.3743 0.72572,0.59434 1.19521,0.59458h5.93555c1.05607,0.0027 1.95824,0.39305 2.62695,1.09961c0.65506,0.69282 0.98198,1.58436 0.92773,2.59766c-0.02339,0.43407 -0.13891,0.90024 -0.27734,1.41016c-0.00201,0.00715 -0.00396,0.01431 -0.00586,0.02148c0,0 -1.72797,6.7571 -2.56445,9.99023c-0.7624,2.94374 -3.32359,4.89453 -6.25781,4.89453c-0.20794,0 -0.41709,-0.01099 -0.62695,-0.03125c-0.00065,0 -0.0013,0 -0.00195,0c0.2289,0.0218 -0.45831,-0.0804 -1.17187,-0.22461c-0.71356,-0.14421 -1.6744,-0.34522 -2.76953,-0.57617c-1.91323,-0.40348 -4.23194,-0.90301 -6.37891,-1.36719c0.0082,-0.10932 0.06445,-0.20321 0.06445,-0.31445v-17.48828c1.77075,-2.76548 3.70535,-5.51304 5.52734,-8.35352l0.00195,-0.00195c0.32858,-0.51058 0.47589,-1.00672 0.61328,-1.49414c0.001,-0.0036 0.4024,-1.41373 0.80859,-2.83984c0.20336,-0.71396 0.40677,-1.43028 0.5625,-1.97461c0.07786,-0.27217 0.14446,-0.50135 0.19141,-0.66406c0.02347,-0.08136 0.04192,-0.14586 0.05469,-0.18945c0.15633,-0.43352 0.26226,-0.48234 0.24805,-0.47461c-0.00711,0.00387 0.00693,-0.00894 0.07617,-0.00977zM10.5,22h5.5v17.5c0,0.8465 -0.6535,1.5 -1.5,1.5h-4c-0.8465,0 -1.5,-0.6535 -1.5,-1.5v-16c0,-0.8465 0.6535,-1.5 1.5,-1.5z"></path>
            </g>
        </g>
    </g>
</svg>